<mxfile host="app.diagrams.net" modified="2024-06-25T11:28:45.113Z" agent="Mozilla/5.0 (X11; Ubuntu; Linux x86_64; rv:109.0) Gecko/20100101 Firefox/115.0" version="24.4.2" etag="A2AL5JrBNVH2gRkz8Zqd" type="github">
  <diagram name="Page-1" id="XppS5xxcAU-5BCj2SP7U">
    <mxGraphModel>
      <root>
        <mxCell id="0" />
        <mxCell id="1" parent="0" />
      </root>
    </mxGraphModel>
  </diagram>
</mxfile>
